<?xml version="1.0" encoding="UTF-8" standalone="no"?>
<svg width="56px" height="36px" viewBox="0 0 56 36" version="1.1" xmlns="http://www.w3.org/2000/svg" xmlns:xlink="http://www.w3.org/1999/xlink">
    <!-- Generator: sketchtool 39.1 (31720) - http://www.bohemiancoding.com/sketch -->
    <title>D4D292A6-E7A4-4EAA-9EED-9B8BA8B506B9</title>
    <desc>Created with sketchtool.</desc>
    <defs></defs>
    <g id="Minard" stroke="none" stroke-width="1" fill="none" fill-rule="evenodd">
        <g id="Projects-list@2x" transform="translate(-1316.000000, -43.000000)" fill="#FFFFFF">
            <g id="icon_noNetwork" transform="translate(1316.000000, 43.000000)">
                <path d="M28,0 C20.538,0 14.288,5.116 12.518,12.026 C12.344,12.018 12.174,12 12,12 C5.372,12 0,17.372 0,24 C0,30.628 5.372,36 12,36 L46,36 C51.522,36 56,31.522 56,26 C56,20.478 51.522,16 46,16 C45.312,16 44.64,16.07 43.99,16.202 C43.99,16.134 44,16.068 44,16 C44,7.164 36.836,0 28,0 M28,2 C35.72,2 42,8.28 42,15.96 L41.99,16.116 L41.99,16.176 L41.958,18.658 L44.39,18.162 C44.918,18.054 45.458,18 46,18 C50.412,18 54,21.588 54,26 C54,30.412 50.412,34 46,34 L12,34 C6.486,34 2,29.514 2,24 C2,18.486 6.486,14 12,14 C12.064,14 12.126,14.006 12.188,14.01 L12.432,14.024 L14.052,14.094 L14.454,12.522 C16.042,6.326 21.612,2 28,2" id="Fill-1"></path>
                <text id=":(" transform="translate(27.500000, 20.000000) rotate(-270.000000) translate(-27.500000, -20.000000) " font-family="Nitti Grotesk Medium, Nitti Grotesk, OpenSans-Semibold, Open Sans" font-size="14" font-weight="500" line-spacing="24">
                    <tspan x="23" y="23">:(</tspan>
                </text>
            </g>
        </g>
    </g>
</svg>
