<?xml version="1.0" encoding="UTF-8"?>
<svg width="130px" height="35px" viewBox="0 0 130 35" version="1.1" xmlns="http://www.w3.org/2000/svg" xmlns:xlink="http://www.w3.org/1999/xlink">
    <!-- Generator: Sketch 43.2 (39069) - http://www.bohemiancoding.com/sketch -->
    <title>minard logo</title>
    <desc>Created with Sketch.</desc>
    <defs></defs>
    <g id="Symbols" stroke="none" stroke-width="1" fill="none" fill-rule="evenodd">
        <g id="minard-logo" fill="#FFFFFF">
            <path d="M8.15347789e-13,33.8646359 L4.91088376,33.8646359 L4.91088376,17.1369381 C5.67820935,16.1649924 7.21286052,15.1418916 9.51483728,15.1418916 C12.7887598,15.1418916 13.5560854,17.1880932 13.5560854,20.9735661 L13.5560854,33.8646359 L18.4669691,33.8646359 L18.4669691,20.0016203 C18.4669691,19.0296746 18.4158141,18.1088839 18.262349,17.2904032 C19.1319846,16.2673025 20.6666358,15.1418916 23.1220777,15.1418916 C26.3960002,15.1418916 27.1121708,17.2392482 27.1121708,20.9735661 L27.1121708,33.8646359 L32.0230545,33.8646359 L32.0230545,20.0016203 C32.0230545,12.4306745 28.2887367,10.8960233 24.7078839,10.8960233 C21.0758761,10.8960233 18.7738994,12.4306745 17.3927133,14.374566 C16.0115273,11.6121939 13.5049303,10.8960233 11.1517985,10.8960233 C7.51979076,10.8960233 5.37127911,12.4306745 4.19471321,14.323411 L4.19471321,11.4075737 L8.15347789e-13,11.4075737 L8.15347789e-13,33.8646359 Z M37.0252149,33.8646359 L41.9360987,33.8646359 L41.9360987,11.4075737 L37.0252149,11.4075737 L37.0252149,33.8646359 Z M36.7182847,4.91088376 L42.2430289,4.91088376 L42.2430289,0 L36.7182847,0 L36.7182847,4.91088376 Z M47.2451893,33.8646359 L52.1560731,33.8646359 L52.1560731,17.1369381 C53.0257087,16.1649924 54.66267,15.1418916 57.1692669,15.1418916 C60.7501196,15.1418916 61.6197553,17.1880932 61.6197553,20.9735661 L61.6197553,33.8646359 L66.5306391,33.8646359 L66.5306391,20.0016203 C66.5306391,12.4306745 62.591701,10.8960233 58.8573832,10.8960233 C54.9696002,10.8960233 52.6676235,12.4306745 51.4399025,14.323411 L51.4399025,11.4075737 L47.2451893,11.4075737 L47.2451893,33.8646359 Z M84.014629,28.6468219 L84.014629,23.6336281 L79.7687608,24.0940234 C76.5971483,24.4521087 74.7044119,25.5263645 74.7044119,27.8283413 C74.7044119,29.6699227 75.9321328,30.7953336 78.4387297,30.7953336 C80.6895515,30.7953336 82.4799778,29.9256979 84.014629,28.6468219 Z M84.8331096,31.2045739 L84.8331096,30.8976437 C83.6565437,32.4834499 80.9453267,34.3761863 77.0063886,34.3761863 C72.5047452,34.3761863 69.8446832,31.8695894 69.8446832,28.0329615 C69.8446832,22.6105273 75.1648072,21.4851164 78.796815,21.1781862 L84.014629,20.7177909 L84.014629,20.1039304 C84.014629,16.6253877 83.4519236,14.6814962 79.8199158,14.6814962 C76.5459933,14.6814962 75.4205824,16.2673025 75.4205824,19.0808296 L70.7143188,19.0808296 C70.8166289,12.3283644 75.9832879,10.8960233 80.3314662,10.8960233 C86.8281562,10.8960233 88.8743577,14.1187908 88.8743577,19.59238 L88.8743577,29.2095274 C88.8743577,30.079163 89.232443,30.5395584 90.1532337,30.5395584 C90.7670942,30.5395584 91.4832647,30.3349382 91.9948151,30.079163 L91.9948151,33.5577057 C91.2786446,33.966946 89.9486136,34.3761863 88.4651174,34.3761863 C85.4469701,34.3761863 84.8331096,32.68807 84.8331096,31.2045739 Z M95.2416555,33.8646359 L100.152539,33.8646359 L100.152539,17.1369381 C100.86871,16.0626823 102.352206,15.0395815 104.858803,15.0395815 C106.239989,15.0395815 107.3654,15.3465117 108.132725,15.653442 L108.132725,11.3564187 C107.825795,11.2029536 107.007315,10.8960233 105.472663,10.8960233 C102.301051,10.8960233 100.510625,12.3283644 99.4363687,14.374566 L99.4363687,11.4075737 L95.2416555,11.4075737 L95.2416555,33.8646359 Z M125.754132,33.8646359 L125.754132,31.1022638 C124.782186,32.5857599 122.633674,34.3761863 118.950512,34.3761863 C114.141938,34.3761863 109.435674,31.2045739 109.435674,22.7128374 C109.435674,14.1699458 114.090783,10.8960233 118.950512,10.8960233 C122.326744,10.8960233 124.321791,12.5841396 125.089116,13.6072404 L125.089116,0 L130,0 L130,33.8646359 L125.754132,33.8646359 Z M125.089116,28.3398917 L125.089116,16.932318 C123.963705,15.7557521 122.275589,15.0395815 120.280543,15.0395815 C116.39276,15.0395815 114.397713,17.7507986 114.397713,22.6105273 C114.397713,27.470256 116.39276,30.2326281 120.280543,30.2326281 C122.275589,30.2326281 123.963705,29.5164576 125.089116,28.3398917 Z" id="minard"></path>
        </g>
    </g>
</svg>