<?xml version="1.0" standalone="no"?>
<!DOCTYPE svg PUBLIC "-//W3C//DTD SVG 20010904//EN"
 "http://www.w3.org/TR/2001/REC-SVG-20010904/DTD/svg10.dtd">
<svg version="1.0" xmlns="http://www.w3.org/2000/svg"
 width="256.000000pt" height="256.000000pt" viewBox="0 0 256.000000 256.000000"
 preserveAspectRatio="xMidYMid meet">
<metadata>
Created by potrace 1.11, written by Peter Selinger 2001-2013
</metadata>
<g transform="translate(0.000000,256.000000) scale(0.100000,-0.100000)"
fill="#000000" stroke="none">
<path d="M816 1963 c-4 -4 -34 -13 -66 -19 -32 -7 -80 -23 -107 -35 -26 -12
-50 -23 -53 -23 -12 -3 -70 -44 -118 -85 -29 -24 -54 -42 -56 -40 -2 2 -15 36
-30 75 -18 48 -34 74 -49 81 -33 14 -172 9 -192 -7 -27 -22 -38 -50 -26 -64 6
-7 7 -16 3 -20 -12 -13 -10 -386 2 -379 7 5 7 2 0 -8 -14 -17 -15 -67 -3 -75
5 -3 6 -11 2 -17 -13 -20 -11 -387 1 -380 7 5 7 2 0 -8 -14 -17 -15 -67 -3
-75 5 -3 6 -11 2 -17 -10 -16 -11 -287 -1 -281 4 3 8 -2 8 -10 0 -31 50 -42
195 -40 77 1 147 2 155 3 9 0 23 13 32 29 14 24 16 75 17 412 0 212 2 392 4
400 7 27 30 70 39 70 4 0 8 6 8 13 0 6 16 26 36 42 20 17 43 36 50 42 7 7 21
14 31 16 10 2 27 8 38 13 31 14 156 10 195 -5 41 -17 84 -54 110 -96 37 -60
42 -118 43 -512 0 -360 1 -384 19 -403 23 -24 5 -22 178 -24 138 -2 146 -1
168 21 l22 22 0 434 0 435 38 37 c58 58 149 97 235 100 132 5 218 -49 258
-160 21 -57 22 -78 24 -445 0 -212 4 -395 8 -407 4 -12 20 -25 35 -30 21 -7
261 -10 319 -4 20 2 52 42 46 57 -3 8 1 14 8 14 9 0 10 3 4 8 -11 8 -15 82 -5
82 4 0 7 7 7 15 0 8 -3 15 -7 15 -3 0 -6 29 -5 65 0 36 3 65 6 65 3 0 6 7 6
15 0 8 -3 15 -7 15 -3 0 -6 29 -5 65 0 36 3 65 6 65 3 0 6 7 6 15 0 8 -3 15
-7 15 -4 0 -6 26 -4 58 1 31 3 57 4 57 1 0 3 10 4 23 2 12 0 22 -3 22 -3 0 -7
44 -7 99 -3 155 -49 313 -125 425 -73 109 -213 195 -344 212 -22 3 -46 11 -54
17 -12 10 -13 9 -6 -3 6 -12 5 -13 -6 -2 -7 6 -17 12 -22 12 -4 0 -5 -6 -1
-12 6 -10 5 -10 -7 -2 -15 13 -83 11 -139 -4 -19 -5 -38 -9 -42 -10 -5 -1 -9
-2 -10 -3 -2 0 -13 -2 -25 -5 -62 -11 -213 -96 -278 -156 -16 -15 -33 -28 -37
-28 -3 0 -26 19 -50 43 -49 49 -112 97 -126 97 -6 0 -12 4 -14 8 -4 11 -133
52 -164 52 -14 0 -23 4 -19 10 3 6 1 10 -4 10 -6 0 -11 -5 -11 -11 0 -8 -4 -8
-13 0 -10 8 -17 7 -27 -2 -10 -9 -11 -9 -6 1 5 8 -1 12 -19 12 -18 0 -24 -4
-19 -12 6 -10 5 -10 -7 -1 -12 10 -18 10 -29 0 -10 -9 -11 -9 -6 1 8 13 3 16
-8 5z"/>
</g>
</svg>
